<svg xmlns="http://www.w3.org/2000/svg" width="100.579" height="99.132" viewBox="0 0 100.579 99.132">
  <g id="vetor-aniversario" transform="translate(0 0)">
    <g id="Grupo_31" data-name="Grupo 31" transform="translate(0 0)">
      <path id="Caminho_7" data-name="Caminho 7" d="M587.412,499.827c-.676-.591-1.312-1.236-2.034-1.764-6.439-4.712-9.885-9.5-14.214-20.108-.469,2-.813,3.449-1.148,4.9-.393,1.7-1.234,2.247-2.756,1.093-1.264-.957-2.519-1.927-3.8-2.863-1.8-1.316-1.423-2.354.342-3.314,1.288-.7,2.533-1.479,3.854-2.256-10.025-5.082-16.073-13.161-18.577-23.764-3.1-13.149,5.906-25.928,18.884-27.22.907-.09,1.831-.012,3.114-.012a36.861,36.861,0,0,0,3.563,19.571,50.946,50.946,0,0,0,12.131,16.1,35.072,35.072,0,0,1-13.364,14.3,34.466,34.466,0,0,0,14.331,21.783c1.421.986,2.814,1.858.794,3.558Z" transform="translate(-548.464 -400.695)" fill="#ffb800"/>
      <path id="Caminho_8" data-name="Caminho 8" d="M656.221,499.687c-2-1.719-.58-2.588.825-3.567,7.624-5.315,12.193-12.634,14.249-21.744a35.47,35.47,0,0,1-13.187-14.053c9.979-9.763,16.678-20.981,15.772-36.156a48.745,48.745,0,0,1,6.207.817c11.672,3.064,18.527,15.77,14.991,28.16-2.807,9.837-8.581,17.469-18.1,22.212,1.517.9,2.958,1.71,4.354,2.593,1.22.771,1.357,1.7.21,2.693a1.986,1.986,0,0,1-.221.171l-5.535,3.574-2.216-5.419c-2.28,3.887-4.426,8.432-7.4,12.345-2.424,3.185-5.844,5.611-8.823,8.374Z" transform="translate(-595.429 -400.554)" fill="#ffb800"/>
      <path id="Caminho_9" data-name="Caminho 9" d="M621.931,444.871c2.382,1.506,4.495,2.844,6.611,4.178,1.4.88,1.783,1.931.4,3.115-1.984,1.7-4.005,3.352-6.045,4.981-1.339,1.069-2.215.667-2.564-.972-.458-2.155-.9-4.312-1.575-6.427a33.787,33.787,0,0,0,1.969,26.506c.295.581.844,1.121.9,1.716a10.313,10.313,0,0,1-.344,2.475c-.85-.312-2.242-.409-2.464-.97-1.775-4.469-3.786-8.922-4.841-13.58-1.561-6.891-.04-13.692,2.273-20.392-10.449-4.5-16.9-12.705-21.318-22.676a29.827,29.827,0,0,1-1.28-22.341c3.868-11.406,13.854-18.729,25.26-18.468,10.966.25,20.864,8.334,24.1,19.677a29.992,29.992,0,0,1-.352,17.624C639.338,429.819,632.738,438.045,621.931,444.871Z" transform="translate(-567.639 -382.009)" fill="#ffb800"/>
    </g>
  </g>
</svg>
