<svg xmlns="http://www.w3.org/2000/svg" width="98.254" height="98.439" viewBox="0 0 98.254 98.439">
  <g id="vetor-casamento" transform="translate(0 0)">
    <g id="Grupo_33" data-name="Grupo 33" transform="translate(0 0)">
      <path id="Caminho_17" data-name="Caminho 17" d="M914.7,253.9a2.674,2.674,0,0,1,3.261-.866c.74.352.665-.2.842-.556a2.719,2.719,0,0,1,4.261-1.124,9.057,9.057,0,0,0,1.576.839c.8.346,1.137.32,1.556-.556a2.465,2.465,0,0,1,3.446-.94c1.279.62,2.056,1.651,1.577,3.116-.3.911-.336,1.281.618,1.824,1.691.963,1.479,3.593-.323,4.791a2.674,2.674,0,0,0-1.26,1.433c2.524,1.372,2.931,3.71.971,5.311-1.157.945-2.575-.217-3.3.2-.839.482-1.2,1.916-2.571,1.976a2.907,2.907,0,0,1-2.983-3.791c.092-.336.6-.659.116-1.022a.949.949,0,0,0-1.231.024c-1.432,1.159-3.559,1.7-3.291,4.311a2.209,2.209,0,0,1-1.7,2.259c-1.287.366-1.641,1.293-1.976,2.394-.145.476.081,1.412-.954,1.172-1.169-.271-.42-1.011-.364-1.583.016-.161.016-.323.024-.492-.97-.6-1.3,2.006-2.318.5-.626-.922.826-1.105.841-1.9-.534-.243-.958.258-1.443.39-.456.124-.678.149-.86-.36s-.192-.851.386-1.031c.316-.1.613-.26.931-.347.744-.205.963-.517.537-1.306-2.315-4.281-4.581-8.589-6.863-12.888-.238-.447-.464-1.017-1.051-.917-.744.127-.366.814-.4,1.245-.276,3.7.945,7.08,2.168,10.467,2.741,7.59,6.091,14.941,8.516,22.654.2.629.391,1.261.649,2.093-2.647,0-5.122.063-7.591-.028-1.153-.043-1.479.286-1.466,1.48.063,5.744.028,11.489.028,17.234a5.083,5.083,0,0,1-1.512,4.128,4.217,4.217,0,0,1-4.661.671,3.573,3.573,0,0,1-2.143-3.659c-.019-6.139-.012-12.278-.028-18.417,0-.615.275-1.393-.841-1.431-.975-.033-1.467.085-1.447,1.319.089,5.574.068,11.15.084,16.725,0,.507.015,1.015-.011,1.52-.133,2.562-1.726,4.3-3.956,4.345a4.3,4.3,0,0,1-4.36-4.188c-.089-1-.011-2.024-.011-3.036,0-5.125-.029-10.251.026-15.376.011-1.055-.286-1.352-1.3-1.313-1.985.077-3.979-.061-5.96.051-1.481.085-1.9-.164-1.375-1.8,2.384-7.373,5.507-14.452,8.14-21.723,1.275-3.522,2.773-7.008,2.611-10.89-.029-.691.431-1.716-.32-2-.8-.306-1.1.761-1.466,1.336-3.179,4.934-6.356,9.869-9.475,14.843a4.24,4.24,0,0,1-4.572,2.277c-1.951-.325-2.882-1.419-3.315-3.854-1.2-6.753-2.368-13.513-3.551-20.269a8.883,8.883,0,0,1-.2-.991c-.05-.854-.564-.938-1.247-.906-.754.036-.709.541-.707,1.06,0,.563,0,1.126,0,1.69q0,29.569,0,59.138a13.964,13.964,0,0,1-.092,1.852,4.29,4.29,0,0,1-4.134,3.866,4.352,4.352,0,0,1-4.605-3.3,14.4,14.4,0,0,1-.19-4.027q0-16.136-.017-32.272c0-.478.4-1.228-.408-1.412-.716-.165-1.387-.185-1.325,1.01.1,1.91.023,3.828.026,5.743q.025,14.107.049,28.215a9.8,9.8,0,0,1-.251,2.846,4.492,4.492,0,0,1-8.791-1.037c-.027-.505-.007-1.013-.007-1.52q0-29.991,0-59.983c0-.394-.013-.789,0-1.183.022-.536-.283-.67-.729-.67s-.737.17-.723.688c.011.394,0,.789,0,1.183,0,6.984.022,13.968-.014,20.952-.015,2.947-1.782,4.557-4.367,4.122a3.309,3.309,0,0,1-3.016-3.278c.038-8.781-.435-17.576.231-26.34.451-5.939,4.666-11.049,11.885-10.758,4.409.177,8.831.032,13.247.033,6.395,0,10.264,2.977,11.713,9.382,1.152,5.092,1.993,10.257,2.973,15.389.072.377.016.8.505,1.18l3.372-5.067c-2.128.3-2.211-.792-1.824-2.141,2.042-7.117,4-14.267,6.591-21.2,1.792-4.786,4.916-8.14,10.191-8.678,5.325-.543,9.177,2.071,11.842,6.475,2.412,3.986,3.705,8.517,5.24,12.909a117.98,117.98,0,0,1,3.553,11.748c-.041.841-.633,1.144-1.3,1.259-.722.124-.78.457-.5,1.044a81.1,81.1,0,0,0,4.233,7.981c.548-.328.637-.71.389-1.181-.105-.2-.323-.318-.432-.507-1.065-1.851-1.18-4.12-2.706-5.829C913.489,256,913.9,254.692,914.7,253.9Z" transform="translate(-834.738 -216.676)" fill="#ffb800"/>
      <path id="Caminho_18" data-name="Caminho 18" d="M882.308,212.464a7.876,7.876,0,1,1-7.872-7.907A7.871,7.871,0,0,1,882.308,212.464Z" transform="translate(-856.016 -204.557)" fill="#ffb800"/>
      <path id="Caminho_19" data-name="Caminho 19" d="M1069.728,315.011c-.91,2.466-.714,3.184,1.447,4.383.666.37.284.659.18,1.035-.267.963-.273,2.054.607,2.546,2.052,1.147.677,1.945-.125,2.95-1.917-3.272-3.682-6.526-5.268-9.954,1.063-.313,2.331.394,2.848-.974Q1069.573,315,1069.728,315.011Z" transform="translate(-989.769 -277.627)" fill="#ffb800"/>
      <path id="Caminho_20" data-name="Caminho 20" d="M949.222,235.611c-.034.977-2.182,3.053-3.13,3.025-1.043-.031-3.086-2.069-3.093-3.086a1.433,1.433,0,0,1,2.359-1.154,1.134,1.134,0,0,0,1.554-.028A1.438,1.438,0,0,1,949.222,235.611Z" transform="translate(-907.135 -224.299)" fill="#ffb800"/>
      <path id="Caminho_21" data-name="Caminho 21" d="M1001.527,255.8c-.014-.067,0,.215-.388.248s-.82.129-1.1-.176a5.07,5.07,0,0,1-.58-.993,36.96,36.96,0,0,0-3.314-4.93,8.516,8.516,0,0,0-7.7-3.617,51.3,51.3,0,0,1-7.274,0,8.481,8.481,0,0,0-7.574,3.552,47.27,47.27,0,0,0-3.548,5.171c-.265.437-.444,1.227-1.138.922-.6-.263-.136-.885-.015-1.309,1.676-5.872,3.422-11.724,5.427-17.494a13.951,13.951,0,0,1,4.332-6.705c4.394-3.468,10.664-2.378,14.083,2.412a34.865,34.865,0,0,1,3.795,7.853c1.714,4.412,3.222,8.9,4.564,13.436C1001.214,254.6,1001.319,255.026,1001.527,255.8Z" transform="translate(-924.258 -220.532)" fill="#ffb800"/>
      <path id="Caminho_22" data-name="Caminho 22" d="M884,260.221v5.586c-1.752-.711-3.439-1.337-5.072-2.082a2.735,2.735,0,0,0-2.626-.042c-1.618.8-3.344,1.383-5.173,2.117v-5.565c1.5.613,2.971,1.092,4.32,1.8a4.187,4.187,0,0,0,4.177-.041C880.989,261.3,882.461,260.834,884,260.221Z" transform="translate(-859.076 -241.409)" fill="#ffb800"/>
      <path id="Caminho_23" data-name="Caminho 23" d="M1098.086,335.563c.173-.667.406-1.424,1.337-1.5.584-.049,1.351.617,1.205.8-.5.632-.227,1.859-1.276,1.972C1098.681,336.9,1098.094,336.5,1098.086,335.563Z" transform="translate(-1010.845 -290.317)" fill="#ffb800"/>
      <path id="Caminho_24" data-name="Caminho 24" d="M1093.589,309.98c.7.138,1.455.439,1.429,1.38-.013.477-.531,1.367-.92,1.028-.6-.525-1.849.106-1.9-1.066A1.178,1.178,0,0,1,1093.589,309.98Z" transform="translate(-1006.906 -274.373)" fill="#ffb800"/>
      <path id="Caminho_25" data-name="Caminho 25" d="M1080.359,318.853c-.844-.113-1.485-.29-1.483-1.155,0-.83.287-1.534,1.219-1.658a1.6,1.6,0,0,1,1.275.729C1080.72,317.335,1081.252,318.555,1080.359,318.853Z" transform="translate(-997.999 -278.381)" fill="#ffb800"/>
      <path id="Caminho_26" data-name="Caminho 26" d="M1115.609,311.652c-.312-.861-1.6-.424-1.8-1.329a1.016,1.016,0,0,1,1.064-1.326,1.478,1.478,0,0,1,1.653,1.265C1116.62,310.874,1116.164,311.257,1115.609,311.652Z" transform="translate(-1021.337 -273.722)" fill="#ffb800"/>
      <path id="Caminho_27" data-name="Caminho 27" d="M1113.831,331.826c-.148-.974-1.736-.188-1.708-1.4.016-.712.414-1.3,1.236-1.215.8.087,1.531.449,1.523,1.4A1.239,1.239,0,0,1,1113.831,331.826Z" transform="translate(-1020.232 -287.101)" fill="#ffb800"/>
      <path id="Caminho_28" data-name="Caminho 28" d="M1105.835,349.895c-.088.973-.447,1.526-1.261,1.427-.8-.1-1.536-.454-1.51-1.429.015-.554.5-1.311.91-1.034C1104.582,349.267,1105.623,349.12,1105.835,349.895Z" transform="translate(-1014.174 -300.083)" fill="#ffb800"/>
      <path id="Caminho_29" data-name="Caminho 29" d="M1118.81,343.059c.9.145,1.415.47,1.343,1.3a1.46,1.46,0,0,1-1.39,1.531c-.534.022-1.326-.705-1.113-.909C1118.239,344.421,1117.937,343.263,1118.81,343.059Z" transform="translate(-1023.904 -296.278)" fill="#ffb800"/>
      <path id="Caminho_30" data-name="Caminho 30" d="M1086.427,332.691c-.734-.122-1.474-.346-1.543-1.3a1.291,1.291,0,0,1,.843-1.273c.348.863,1.827.088,1.9,1.281A1.126,1.126,0,0,1,1086.427,332.691Z" transform="translate(-1002.015 -287.709)" fill="#ffb800"/>
      <path id="Caminho_31" data-name="Caminho 31" d="M1099.238,325.524c.893-.485-.25-2.415,1.521-2.077a1.07,1.07,0,0,1,.954,1.313C1101.413,326.483,1100.02,325,1099.238,325.524Z" transform="translate(-1011.616 -283.269)" fill="#ffb800"/>
      <path id="Caminho_32" data-name="Caminho 32" d="M1122.2,325.308c-.5-.841-1.69-1.319-1.1-2.406.294-.544,1.048-.276,1.444.1C1123.325,323.753,1122.944,324.473,1122.2,325.308Z" transform="translate(-1026.127 -282.726)" fill="#ffb800"/>
      <path id="Caminho_33" data-name="Caminho 33" d="M1104.292,314.086c.42.361,1.184.5.477,1.208-.249.247-.555.8-.858.4C1103.507,315.17,1104.23,314.694,1104.292,314.086Z" transform="translate(-1014.659 -277.099)" fill="#ffb800"/>
      <path id="Caminho_34" data-name="Caminho 34" d="M1001.727,249.054a7.423,7.423,0,0,1-7.506-7.4,7.584,7.584,0,0,1,15.166-.182A7.424,7.424,0,0,1,1001.727,249.054Z" transform="translate(-941.388 -224.247)" fill="#ffb800"/>
    </g>
  </g>
</svg>
