<svg id="quebra" xmlns="http://www.w3.org/2000/svg" width="172.998" height="15.517" viewBox="0 0 172.998 15.517">
  <g id="horseshoe-variant-with-long-holes" transform="translate(79.548)">
    <path id="Caminho_1" data-name="Caminho 1" d="M15.245,8.287C15.245,3.718,12.048,0,8.118,0S.991,3.718.991,8.287a9.391,9.391,0,0,0,.9,4.044l.6,1.255c.021.083.879,1.522.879,1.522a.845.845,0,0,0,1.169.282l1.81-1.123a.863.863,0,0,0,.279-1.18l-.779-1.279a.845.845,0,0,0-1.169-.282l-.024.015-.22-.459a6.494,6.494,0,0,1-.62-2.8C3.823,5.3,5.749,2.86,8.118,2.86s4.3,2.435,4.3,5.428a6.5,6.5,0,0,1-.62,2.8l-.219.455-.021-.012a.845.845,0,0,0-1.169.282l-.779,1.279a.862.862,0,0,0,.28,1.18L11.7,15.39a.845.845,0,0,0,1.169-.282s.864-1.452.884-1.542l.593-1.236A9.391,9.391,0,0,0,15.245,8.287Zm-13.26.4.047-1.266a.393.393,0,0,1,.414-.379.406.406,0,0,1,.385.418L2.783,8.726a.393.393,0,0,1-.414.379A.4.4,0,0,1,1.985,8.688Zm.626,1.606a.4.4,0,0,1,.528.205l.511,1.158a.4.4,0,0,1-.207.524.4.4,0,0,1-.528-.206L2.4,10.817A.4.4,0,0,1,2.611,10.294ZM3.852,4.351,3.268,5.472a.391.391,0,0,1-.536.162.406.406,0,0,1-.168-.543L3.149,3.97a.391.391,0,0,1,.536-.162A.407.407,0,0,1,3.852,4.351ZM5.99,2.317,4.954,3.03a.392.392,0,0,1-.55-.11.4.4,0,0,1,.1-.558l1.036-.712a.393.393,0,0,1,.55.109A.4.4,0,0,1,5.99,2.317Zm2.75-.5-1.254.022a.4.4,0,0,1-.013-.805l1.253-.022a.4.4,0,0,1,.015.805Zm3.091,1.057a.393.393,0,0,1-.546.128l-1.059-.677a.405.405,0,0,1-.121-.555.393.393,0,0,1,.546-.128l1.06.677A.406.406,0,0,1,11.831,2.878Zm.53,1.472a.406.406,0,0,1,.151-.548.391.391,0,0,1,.541.145l.62,1.1a.406.406,0,0,1-.15.548.391.391,0,0,1-.541-.145Zm1.6,6.448-.478,1.172a.4.4,0,0,1-.522.221.4.4,0,0,1-.222-.517l.477-1.172a.4.4,0,0,1,.523-.221A.4.4,0,0,1,13.961,10.8ZM13.9,9.076a.394.394,0,0,1-.426-.366l-.086-1.263a.406.406,0,0,1,.37-.431.394.394,0,0,1,.425.366l.086,1.263A.4.4,0,0,1,13.9,9.076Z" transform="translate(-0.991)" fill="#ffb800"/>
  </g>
  <line id="Linha_3" data-name="Linha 3" x2="68.993" transform="translate(104.005 7.978)" fill="none" stroke="#ffb800" stroke-width="2"/>
  <line id="Linha_4" data-name="Linha 4" x2="68.993" transform="translate(0 7.978)" fill="none" stroke="#ffb800" stroke-width="2"/>
</svg>
