<svg xmlns="http://www.w3.org/2000/svg" width="625" height="60" viewBox="0 0 625 60">
  <g id="quebra" transform="translate(-370.5 -1205)">
    <g id="dancing-horse-and-horseshoe-background" transform="translate(650.383 1197.172)">
      <path id="Caminho_2" data-name="Caminho 2" d="M20.683,48.869a23.136,23.136,0,0,0,1.988,3.807l-7.866,5.138a32.556,32.556,0,0,1-2.656-5,7.777,7.777,0,0,0,5.262-6.895c.042-.33.05-.792.063-1.306.008-.4.02-.755.042-1.079A12.35,12.35,0,0,0,20.683,48.869ZM57.413,26.758a3.138,3.138,0,0,1-2.849-1.869,3.345,3.345,0,0,1-2.211-1.332,10.451,10.451,0,0,1-1.017-.873c-.032.091-.059.194-.085.3-.4,1.8.646,4.7,1.513,5.824,1.547,2,1.906,5.077,1.982,6.811a6.141,6.141,0,0,0,.909.058,8.776,8.776,0,0,0,1.193-.087,5.688,5.688,0,0,1-.142-1.042c-.083-1.768.595-3.243,1.509-3.287s1.721,1.351,1.8,3.121A6.126,6.126,0,0,1,60,35.1a.341.341,0,0,1,.063-.008,4.494,4.494,0,0,1,3.524,1.351,34.591,34.591,0,0,0-2.819-11.421,2.726,2.726,0,0,1-1.045,1.056A4.755,4.755,0,0,1,57.413,26.758ZM37.8,17.19l-.34.087.253.017C37.744,17.257,37.77,17.223,37.8,17.19ZM9.432,41.159c-.041-.7-.071-1.391-.071-2.094,0-17.225,12.188-31.237,27.175-31.237a24.02,24.02,0,0,1,10.318,2.353,12.369,12.369,0,0,0-6.576,3.35L36.44,17.224c-8.464.056-15.539,7.41-17.27,17.195a12.255,12.255,0,0,0-2.864.734,5.555,5.555,0,0,0,.056-.6c.081-1.768-.595-3.241-1.506-3.287s-1.724,1.351-1.8,3.121a5.044,5.044,0,0,0,.392,2.316,13.631,13.631,0,0,0-2.476,2.346l-.085.1-.062.112A12.984,12.984,0,0,1,9.432,41.159ZM34.046,13.041a2.308,2.308,0,1,0,4.607,0,2.308,2.308,0,1,0-4.607,0ZM17.823,24.669c.722.6,2.142-.046,3.164-1.446s1.268-3.015.548-3.611-2.142.046-3.164,1.448S17.1,24.073,17.823,24.669ZM58.191,54a2.392,2.392,0,0,1-1.174.322,2.031,2.031,0,0,1-1.525-.679,4.763,4.763,0,0,1-.773-3.378,3.813,3.813,0,0,1,.859-2.936,3.05,3.05,0,0,1,.727-.575,7.553,7.553,0,0,1,.115-1.065,4.4,4.4,0,0,0-.083-2.815,8.016,8.016,0,0,1-2.477,1.019A24.12,24.12,0,0,1,50.4,52.676l7.862,5.138a33.058,33.058,0,0,0,2.726-5.168,3.661,3.661,0,0,1-.8-1.34A4.492,4.492,0,0,1,58.191,54Zm6.661-10.737A10.465,10.465,0,0,1,62.9,38.5s-.115-2.351-4.077-1.724c0,0-3.161,1.036-5.626.056,0,0,.176-4.673-1.671-7.063-1.434-1.866-3.441-7.7-.109-9.417,0,0,1.835,2.751,4.307,3.047,0,0,.286,2.925,3.271,1.316.8-.432,1.091-2.237.29-3.387l-.632-.923s-1.664-5.168-3.161-6.665c0,0-.52-2.575,0-3.784a3.82,3.82,0,0,0-1.205,1.031,5.318,5.318,0,0,1,.4-1.836s-2.815,1.727-2.985,2.7a11.2,11.2,0,0,0-10.344,2.817,6.549,6.549,0,0,1,2.414-.23s-5.689,3.218-6.72,7.007c0,0,1.841-1.21,2.408-1.033a11.6,11.6,0,0,0-3.33,9.764s-.459,1.262-5.227,1.49c0,0-7.407.058-10.28,4.254a10.713,10.713,0,0,0-8.443,4.134S8.906,45.738,5,44.987c0,0,3.843,1.78,5.686.176,0,0-.692,3.044-10.687,5.107,0,0,14.6,5.816,15.857-4.536.2-1.644-.463-6.835,3.041-5.859,0,0-1.607,5.4,6.028,10.51,0,0,1.784,2.07-.166,6.492,0,0-.98,3.105,2.867,3.5a10.778,10.778,0,0,1,5.055,4.65,6.234,6.234,0,0,0,2.241.632s.687,2.525,2.01,2.122c0,0,3.67-.344,2.3-1.833l-.518-.8s1.782.464,0-1.894c0,0-.859-1.091-4.132-1.039,0,0-.635-1.377-3.85-2.7,0,0-2.185-1.091.573-5.684,0,0,1.321-3.967,2.185-4.6,0,0-.176-2.3.687-3.271,0,0,5.858,3.39,15.218-4.938l1.78,1.667s4.251-.115,5.225-2.13c0,0,2.53,1.492,1.558,5.4a4.518,4.518,0,0,0,.051,1.952s-1.952-.229-1.725,2.355c0,0-.286,3.161,1.148,2.359a3.146,3.146,0,0,0,1.381-2.588,5.489,5.489,0,0,1,1.492-2.3s.92-1.149-.231-2.991a13.25,13.25,0,0,1-.516-2.931,5.8,5.8,0,0,0-.745-2s4.016-.691,4.133,7.231l-.689.233s-2.009,3.56.632,4.881c0,0,.92.4,1.322-1.035l.284-3.1C64.5,48.027,65.879,45.445,64.852,43.261Z" fill="#ffb800"/>
    </g>
    <line id="Linha_1" data-name="Linha 1" x2="250" transform="translate(745.5 1235.5)" fill="none" stroke="#ffb800" stroke-width="2"/>
    <line id="Linha_2" data-name="Linha 2" x2="250" transform="translate(370.5 1235.5)" fill="none" stroke="#ffb800" stroke-width="2"/>
  </g>
</svg>
