<svg xmlns="http://www.w3.org/2000/svg" width="97.24" height="104.849" viewBox="0 0 97.24 104.849">
  <g id="vetor-debutante" transform="translate(0 0.001)">
    <g id="Grupo_32" data-name="Grupo 32" transform="translate(0 0)">
      <path id="Caminho_10" data-name="Caminho 10" d="M474.14,591.605h80.6V573.962c-3.307.06-6.713.784-9.718-.01s-5.582-3.107-8.434-4.806c-6.318,7.468-14.533,7.442-22.27-.567a13.4,13.4,0,0,1-11.271,5.994c-4.7-.009-8.442-2.212-11.272-6.033-4.767,5.99-10.616,7.425-17.631,4.644Zm40.154-39.669v.008c-10.977,0-21.954-.03-32.93.014-4.8.019-8.229,2.565-9.019,6.719a25.921,25.921,0,0,0-.176,4.689c-.017,3.723,1.455,5.747,5,6.955,4.586,1.562,9-.077,11.708-4.349,1.807-2.849,3.973-2.855,5.778-.014,4.177,6.573,12.632,6.639,16.8.129,1.93-3.013,3.98-3.017,5.91-.012,4.181,6.509,12.6,6.462,16.824-.094,1.854-2.875,3.751-2.755,5.833-.063a14.011,14.011,0,0,0,4.792,4.176c4.363,2.037,10.388-.167,11.667-3.88,2.675-7.765-1.894-14.269-10.043-14.276Q530.367,551.926,514.294,551.936Zm.152-35.667c-7.49,0-14.98-.065-22.468.024a8.209,8.209,0,0,0-8.365,7.4c-.59,5.636,1.265,8.74,5.958,9.976a9.491,9.491,0,0,0,10.589-4.326c2.06-3.226,4.024-3.253,6.04-.083,4.019,6.317,12.375,6.321,16.442.009,2.041-3.168,4-3.145,6.034.069a9.526,9.526,0,0,0,11.829,3.926c4.066-1.626,5.7-5.1,4.739-10.06-.839-4.309-4.253-6.928-9.114-6.939C528.9,516.253,521.675,516.265,514.446,516.269Zm-11.239,15.46c-5.092,6.192-11.164,7.527-18.292,4.026v13.658H544V535.689c-7.237,3.672-13.322,2.154-18.346-3.892C518.366,539.674,510.335,539.671,503.207,531.729Zm59.829,62.712H465.8v5.878h97.24Zm-38.927-91.834c-.034-5.709-4.172-8.289-8.132-6.643a4.308,4.308,0,0,1-2.925.1c-2.325-.9-4.464-.872-6.356.772a5.119,5.119,0,0,0-1.617,6.134,17.85,17.85,0,0,0,3.474,5.718c6.728,6.613,5.087,6.6,11.762-.05C522.24,506.721,523.3,503.935,524.109,502.607Z" transform="translate(-465.796 -495.471)" fill="#ffb800"/>
      <path id="Caminho_11" data-name="Caminho 11" d="M481.741,658.16V639.738c7.015,2.781,12.863,1.346,17.631-4.644,2.831,3.821,6.573,6.024,11.272,6.033a13.4,13.4,0,0,0,11.271-5.994c7.737,8.009,15.952,8.035,22.27.567,2.852,1.7,5.441,4.014,8.434,4.806s6.411.071,9.718.01V658.16Z" transform="translate(-473.397 -562.026)" fill="#ffb800"/>
      <path id="Caminho_12" data-name="Caminho 12" d="M520.082,603.367q16.073,0,32.146,0c8.149.007,12.718,6.511,10.043,14.276-1.279,3.713-7.3,5.918-11.667,3.88a14.011,14.011,0,0,1-4.791-4.176c-2.082-2.692-3.979-2.812-5.833.063-4.227,6.556-12.643,6.6-16.824.094-1.931-3.006-3.981-3-5.91.012-4.169,6.51-12.625,6.444-16.8-.129-1.8-2.841-3.97-2.836-5.778.014-2.711,4.272-7.122,5.911-11.708,4.349-3.546-1.208-5.018-3.232-5-6.955a25.926,25.926,0,0,1,.176-4.688c.79-4.155,4.217-6.7,9.019-6.719,10.977-.044,21.953-.014,32.93-.014Z" transform="translate(-471.583 -546.902)" fill="#ffb800"/>
      <path id="Caminho_13" data-name="Caminho 13" d="M530.579,535.19c7.228,0,14.456-.014,21.685,0,4.861.012,8.274,2.63,9.114,6.939.966,4.955-.674,8.434-4.739,10.06a9.526,9.526,0,0,1-11.829-3.926c-2.039-3.214-3.993-3.237-6.034-.069-4.067,6.312-12.423,6.308-16.442-.009-2.016-3.17-3.98-3.143-6.04.083A9.491,9.491,0,0,1,505.7,552.6c-4.693-1.236-6.548-4.341-5.958-9.976a8.209,8.209,0,0,1,8.365-7.4C515.6,535.127,523.089,535.192,530.579,535.19Z" transform="translate(-481.928 -514.394)" fill="#ffb800"/>
      <path id="Caminho_14" data-name="Caminho 14" d="M520.623,564.756c7.128,7.941,15.159,7.945,22.445.068,5.023,6.046,11.108,7.564,18.346,3.892V582.44H502.331V568.782C509.459,572.283,515.531,570.948,520.623,564.756Z" transform="translate(-483.211 -528.498)" fill="#ffb800"/>
      <path id="Caminho_15" data-name="Caminho 15" d="M563.036,684.59v5.878H465.8V684.59Z" transform="translate(-465.796 -585.62)" fill="#ffb800"/>
      <path id="Caminho_16" data-name="Caminho 16" d="M559.49,502.607c-.81,1.328-1.869,4.114-3.794,6.031-6.675,6.648-5.034,6.663-11.762.05a17.849,17.849,0,0,1-3.474-5.718,5.119,5.119,0,0,1,1.617-6.134c1.892-1.645,4.031-1.672,6.356-.772a4.307,4.307,0,0,0,2.925-.1C555.318,494.318,559.455,496.9,559.49,502.607Z" transform="translate(-501.177 -495.471)" fill="#ffb800"/>
    </g>
  </g>
</svg>
