<svg xmlns="http://www.w3.org/2000/svg" width="336" height="30.146" viewBox="0 0 336 30.146">
  <g id="quebra" transform="translate(-436.5 -1203)">
    <g id="horseshoe-variant-with-long-holes" transform="translate(591 1203)">
      <path id="Caminho_1" data-name="Caminho 1" d="M28.675,16.1c0-8.876-6.21-16.1-13.843-16.1S.991,7.224.991,16.1a18.248,18.248,0,0,0,1.755,7.856l1.171,2.439c.04.162,1.707,2.957,1.707,2.957a1.641,1.641,0,0,0,2.27.547l3.515-2.181a1.676,1.676,0,0,0,.542-2.293L10.439,22.94a1.641,1.641,0,0,0-2.27-.547l-.047.03-.427-.891a12.62,12.62,0,0,1-1.2-5.431c0-5.814,3.742-10.545,8.341-10.545s8.342,4.731,8.342,10.545a12.629,12.629,0,0,1-1.2,5.431l-.425.884-.04-.023a1.641,1.641,0,0,0-2.27.547l-1.512,2.484a1.676,1.676,0,0,0,.543,2.293L21.781,29.9a1.64,1.64,0,0,0,2.27-.547s1.678-2.82,1.716-3l1.152-2.4A18.249,18.249,0,0,0,28.675,16.1Zm-25.753.779.09-2.459a.764.764,0,0,1,.8-.737.788.788,0,0,1,.747.812l-.09,2.459a.762.762,0,0,1-.8.736A.786.786,0,0,1,2.922,16.879ZM4.137,20a.783.783,0,0,1,1.026.4l.992,2.25a.77.77,0,0,1-.4,1.017.783.783,0,0,1-1.026-.4l-.992-2.25A.768.768,0,0,1,4.137,20ZM6.547,8.452,5.413,10.631a.759.759,0,0,1-1.04.315.789.789,0,0,1-.326-1.055L5.182,7.713A.759.759,0,0,1,6.222,7.4.79.79,0,0,1,6.547,8.452ZM10.7,4.5,8.688,5.886a.762.762,0,0,1-1.067-.214.785.785,0,0,1,.2-1.084L9.833,3.2a.763.763,0,0,1,1.067.213A.787.787,0,0,1,10.7,4.5Zm5.341-.962-2.436.042a.783.783,0,0,1-.026-1.565l2.433-.042a.783.783,0,0,1,.028,1.565Zm6,2.053a.763.763,0,0,1-1.06.248L18.927,4.525a.788.788,0,0,1-.234-1.078.763.763,0,0,1,1.06-.248l2.058,1.316A.788.788,0,0,1,22.044,5.592Zm1.029,2.86a.79.79,0,0,1,.293-1.065.76.76,0,0,1,1.05.281l1.2,2.138a.789.789,0,0,1-.292,1.065.76.76,0,0,1-1.05-.281Zm3.108,12.527-.928,2.277a.782.782,0,0,1-1.014.429.77.77,0,0,1-.432-1l.927-2.276a.783.783,0,0,1,1.015-.429A.769.769,0,0,1,26.182,20.978Zm-.121-3.345a.765.765,0,0,1-.827-.71l-.168-2.453a.788.788,0,0,1,.72-.837.765.765,0,0,1,.826.711l.168,2.453A.784.784,0,0,1,26.061,17.633Z" transform="translate(-0.991)" fill="#fff"/>
    </g>
    <line id="Linha_3" data-name="Linha 3" x2="134" transform="translate(638.5 1218.5)" fill="none" stroke="#fff" stroke-width="2"/>
    <line id="Linha_4" data-name="Linha 4" x2="134" transform="translate(436.5 1218.5)" fill="none" stroke="#fff" stroke-width="2"/>
  </g>
</svg>
